# xmcd
#
# Track frame offsets:
# 197
# 19150
# 42727
# 55930
# 69797
# 88135
# 102610
# 117330
# 138557
# 154142
#
# Disc length: 2309 seconds
#
# Revision: 2
# Processed by: cddbd v1.4PL0 Copyright (c) Steve Scherf et al.
# Submitted via: Axialis_AX_CDPlayer 2.6
#
DISCID=8e09030a
DTITLE=Shirley Bassey - Superstar
DYEAR=1900
DGENRE=
TTITLE0=All by myself
TTITLE1=This masquerade
TTITLE2=If and when
TTITLE3=He s out of my life
TTITLE4=New York state of mind
TTITLE5=Can you read my mind
TTITLE6=Only when I laugh
TTITLE7=Solitaire
TTITLE8=New York, New York
TTITLE9=We don t cry out loud
EXTD=
EXTT0=
EXTT1=
EXTT2=
EXTT3=
EXTT4=
EXTT5=
EXTT6=
EXTT7=
EXTT8=
EXTT9=
PLAYORDER=
